<?xml version="1.0" encoding="UTF-8"?>
<svg xmlns="http://www.w3.org/2000/svg" version="1.1" width="32px" height="32px" viewBox="0 0 32 32">
  <defs>
    <style>
      .cls-1 {
        fill: #444;
        fill-rule: evenodd;
      }
    </style>
  </defs>
  <!-- Generator: Adobe Illustrator 28.7.1, SVG Export Plug-In . SVG Version: 1.2.0 Build 142)  -->
  <g>
    <g id="Layer_1">
      <path class="cls-1" d="M16,.2c8.8,0,15.8,7.1,15.8,15.8s-7.1,15.8-15.8,15.8S.2,24.8.2,16,7.2.2,16,.2ZM10.5,19.5c-1.1,0-2,.9-2,2s.9,2,2,2,2-.9,2-2-.9-2-2-2ZM8.5,13.6v2.9c1.9,0,3.6.7,4.9,2.1,1.3,1.3,2,3.1,2,5h2.9c0-5.4-4.4-9.9-9.9-9.9h0ZM8.5,8.5v2.9c6.7,0,12.1,5.4,12.1,12.1h2.9c0-8.2-6.7-15-14.9-15h0Z"/>
    </g>
  </g>
</svg>
