<?xml version="1.0" encoding="UTF-8"?>
<svg xmlns="http://www.w3.org/2000/svg" version="1.1" width="32" height="32" viewBox="0 0 32 32">
  <defs>
    <style>
      .cls-1 {
        fill: #444;
      }
    </style>
  </defs>
  <!-- Generator: Adobe Illustrator 28.7.0, SVG Export Plug-In . SVG Version: 1.2.0 Build 136)  -->
  <g>
    <g id="Layer_1">
      <path class="cls-1" d="M16,0C7.2,0,0,7.2,0,16s7.2,16,16,16,16-7.2,16-16S24.8,0,16,0ZM25.6,15.5c-.7,2.6-3.4,3.3-5.7,2.9,4.1.7,5.2,3,2.9,5.3-4.3,4.4-6.2-1.1-6.6-2.5,0-.3-.1-.4-.1-.3,0-.1,0,0-.1.3-.5,1.4-2.4,6.9-6.6,2.5-2.3-2.3-1.2-4.6,2.9-5.3-2.4.4-5-.3-5.7-2.9-.2-.7-.6-5.3-.6-6,0-3.1,2.7-2.1,4.4-.9h0c2.3,1.7,4.8,5.3,5.8,7.2.9-1.9,3.4-5.4,5.8-7.2,1.7-1.3,4.4-2.2,4.4.9s-.4,5.2-.6,6Z"/>
    </g>
  </g>
</svg>
